# xmcd CD database file
#
# Track frame offsets:
#	150
#	11209
#	25916
#	38752
#	51155
#	62436
#	77006
#	88475
#	100839
#	112887
#	123177
#	135546
#
# Disc length: 1970 seconds
#
# Revision: 0
# Processed by: cddbd v1.5.1PL0 Copyright (c) Steve Scherf et al.
# Submitted via: CDex 1.50
#
DISCID=9407b00c
DTITLE=Slim Dusty - Songs from the Cattle Camps
DYEAR=1968
DGENRE=Country
TTITLE0=Fair Enough
TTITLE1=Dreamtime Voices
TTITLE2=The Crow
TTITLE3=Ghosts of the Golden Mile
TTITLE4=Back in the Saddle
TTITLE5=I must have good Terbaccy when I smoke
TTITLE6=Hard Hard Country
TTITLE7=St Peter
TTITLE8=Old Man Drought
TTITLE9=Back where I belong
TTITLE10=Old Beau
TTITLE11=Old Mates
EXTD=YEAR: 1968
EXTT0=
EXTT1=
EXTT2=
EXTT3=
EXTT4=
EXTT5=
EXTT6=
EXTT7=
EXTT8=
EXTT9=
EXTT10=
EXTT11=
PLAYORDER=
